<?xml version="1.0" standalone="no"?><!DOCTYPE svg PUBLIC "-//W3C//DTD SVG 1.1//EN" "http://www.w3.org/Graphics/SVG/1.1/DTD/svg11.dtd"><svg t="1559840142912" class="icon" style="" viewBox="0 0 1024 1024" version="1.1" xmlns="http://www.w3.org/2000/svg" p-id="2034" xmlns:xlink="http://www.w3.org/1999/xlink" width="128" height="128"><defs><style type="text/css"></style></defs><path d="M922.141696 307.2l-0.512 47.872L918.711296 716.8h-92.16v-48.7936H249.271296l-13.312 48.7936H153.629696V307.2h768.512zM150.711296 256c-32.256 0-48.2816 16.128-48.128 48.3328 0.3072 85.9648 0.3072 214.8864 0 386.7136 0 61.3376-6.0416 78.7456 51.2 78.7456H292.381696l3.4816-101.376L292.381696 716.8h487.0144v52.992h148.2752c30.0032-21.504 44.9536-37.632 44.9536-48.3328V304.3328s6.0416-48.3328-51.2-48.3328H150.813696zM768.029696 931.84H299.600896v-146.8416c0-9.4208-1.6384-16.9984-13.1072-16.9984-11.4176 0-30.464 7.5776-30.464 16.9984v170.8032c0 9.4208 19.0464 16.9984 30.464 16.9984h512c11.4688 0 20.736-7.5776 20.736-16.9984v-170.8032c0-9.4208-9.2672-16.9984-20.736-16.9984-11.4176 0-26.2144 7.5776-26.2144 16.9984L768.029696 931.84zM256.029696 456.448h256v-42.496H256.029696v42.496zM299.600896 256V153.6h469.504l3.1744 102.4H819.229696V153.6l-46.9504-51.2H302.980096L256.029696 153.6v102.4h43.5712z" fill="#e6e6e6" opacity=".8" p-id="2035"></path><path d="M256.029696 665.6h51.2v307.2H256.029696zM768.029696 665.6h51.2v307.2h-51.2z" fill="#e6e6e6" p-id="2036"></path><path d="M204.829696 665.6h665.6v51.2H204.829696z" fill="#e6e6e6" p-id="2037"></path></svg>