<?xml version="1.0" standalone="no"?><!DOCTYPE svg PUBLIC "-//W3C//DTD SVG 1.1//EN" "http://www.w3.org/Graphics/SVG/1.1/DTD/svg11.dtd"><svg t="1558971879716" class="icon" style="" viewBox="0 0 1063 1024" version="1.1" xmlns="http://www.w3.org/2000/svg" p-id="2021" xmlns:xlink="http://www.w3.org/1999/xlink" width="132.875" height="128"><defs><style type="text/css"></style></defs><path d="M159.288889 0H807.822222c125.155556 0 204.8 79.644444 204.8 204.8v51.2c0 22.755556-11.377778 45.511111-39.822222 39.822222-28.444444 0-39.822222-17.066667-34.133333-45.511111 0-28.444444 0-51.2-5.688889-79.644444-11.377778-56.888889-45.511111-91.022222-102.4-91.022223H187.733333c-62.577778 0-108.088889 51.2-108.088889 119.466667V819.2c0 79.644444 45.511111 119.466667 119.466667 119.466667h113.777778c28.444444 0 51.2 17.066667 45.511111 39.822222 0 34.133333-17.066667 45.511111-45.511111 45.511111-56.888889 0-91.022222-5.688889-164.977778-5.688889S0 944.355556 0 870.4V153.6C0 79.644444 73.955556 17.066667 159.288889 0z" p-id="2022"></path><path d="M750.933333 221.866667c85.333333 5.688889 153.6 51.2 187.733334 136.533333s17.066667 164.977778-45.511111 233.244444c-22.755556 22.755556-17.066667 28.444444 5.688888 45.511112 91.022222 62.577778 147.911111 142.222222 159.288889 256 5.688889 34.133333-5.688889 56.888889-34.133333 62.577777-22.755556 5.688889-39.822222-17.066667-45.511111-51.2-17.066667-130.844444-136.533333-244.622222-256-238.933333-85.333333 5.688889-142.222222 56.888889-193.422222 125.155556-22.755556 34.133333-39.822222 73.955556-45.511111 113.777777 0 34.133333-22.755556 51.2-45.511112 45.511111-22.755556-5.688889-39.822222-28.444444-34.133333-56.888888 11.377778-113.777778 73.955556-193.422222 164.977778-256 22.755556-17.066667 22.755556-22.755556 5.688889-39.822223-56.888889-73.955556-73.955556-153.6-39.822222-238.933333 34.133333-85.333333 113.777778-136.533333 216.177777-136.533333z m-11.377777 358.4c79.644444 0 136.533333-62.577778 136.533333-142.222223s-62.577778-142.222222-142.222222-142.222222c-73.955556 0-136.533333 62.577778-136.533334 142.222222s62.577778 142.222222 142.222223 142.222223zM324.266667 369.777778H193.422222c-34.133333 0-51.2-17.066667-51.2-39.822222 0-22.755556 22.755556-39.822222 51.2-39.822223H455.111111c34.133333 0 51.2 17.066667 51.2 39.822223 0 22.755556-17.066667 39.822222-51.2 39.822222H324.266667zM290.133333 512h102.4c22.755556 0 39.822222 11.377778 39.822223 34.133333 0 28.444444-17.066667 39.822222-39.822223 39.822223H182.044444c-22.755556 0-39.822222-17.066667-39.822222-39.822223 0-22.755556 17.066667-34.133333 39.822222-34.133333h108.088889z" p-id="2023"></path></svg>